<mxfile host="65bd71144e">
    <diagram id="JaGy7mWuvoJbOr9fBR5Q" name="Page-1">
        <mxGraphModel dx="1848" dy="1887" grid="1" gridSize="10" guides="1" tooltips="1" connect="1" arrows="1" fold="1" page="1" pageScale="1" pageWidth="850" pageHeight="1100" math="0" shadow="0">
            <root>
                <mxCell id="0"/>
                <mxCell id="1" parent="0"/>
                <mxCell id="19" value="Region" style="sketch=0;outlineConnect=0;gradientColor=none;html=1;whiteSpace=wrap;fontSize=12;fontStyle=0;shape=mxgraph.aws4.group;grIcon=mxgraph.aws4.group_region;strokeColor=#3399FF;fillColor=none;verticalAlign=top;align=left;spacingLeft=30;fontColor=#B6BABF;strokeWidth=2;" vertex="1" parent="1">
                    <mxGeometry x="119.5" y="60" width="750" height="510" as="geometry"/>
                </mxCell>
                <mxCell id="24" value="" style="shape=ext;double=0;rounded=0;whiteSpace=wrap;html=1;shadow=0;sketch=0;strokeColor=#3399FF;strokeWidth=2;fillColor=none;rotation=-90;dashed=1;" vertex="1" parent="1">
                    <mxGeometry x="3.25" y="182.5" width="505" height="265" as="geometry"/>
                </mxCell>
                <mxCell id="25" value="" style="shape=ext;double=0;rounded=0;whiteSpace=wrap;html=1;shadow=0;sketch=0;strokeColor=#3399FF;strokeWidth=2;fillColor=none;rotation=-90;dashed=1;" vertex="1" parent="1">
                    <mxGeometry x="268" y="182.5" width="505" height="265" as="geometry"/>
                </mxCell>
                <mxCell id="27" value="" style="shape=ext;double=0;rounded=0;whiteSpace=wrap;html=1;shadow=0;sketch=0;strokeColor=#3399FF;strokeWidth=2;fillColor=none;rotation=-90;dashed=1;" vertex="1" parent="1">
                    <mxGeometry x="508.25" y="204.75" width="505" height="220.5" as="geometry"/>
                </mxCell>
                <mxCell id="28" value="&lt;b&gt;&lt;font face=&quot;Times New Roman&quot; style=&quot;font-size: 14px;&quot;&gt;AZ-1&lt;/font&gt;&lt;/b&gt;" style="text;html=1;align=center;verticalAlign=middle;resizable=0;points=[];autosize=1;strokeColor=none;fillColor=none;" vertex="1" parent="1">
                    <mxGeometry x="220" y="520" width="50" height="30" as="geometry"/>
                </mxCell>
                <mxCell id="29" value="&lt;b&gt;&lt;font face=&quot;Times New Roman&quot; style=&quot;font-size: 14px;&quot;&gt;AZ-2&lt;/font&gt;&lt;/b&gt;" style="text;html=1;align=center;verticalAlign=middle;resizable=0;points=[];autosize=1;strokeColor=none;fillColor=none;" vertex="1" parent="1">
                    <mxGeometry x="495.5" y="520" width="50" height="30" as="geometry"/>
                </mxCell>
                <mxCell id="30" value="&lt;b&gt;&lt;font face=&quot;Times New Roman&quot; style=&quot;font-size: 14px;&quot;&gt;AZ-3&lt;/font&gt;&lt;/b&gt;" style="text;html=1;align=center;verticalAlign=middle;resizable=0;points=[];autosize=1;strokeColor=none;fillColor=none;" vertex="1" parent="1">
                    <mxGeometry x="730" y="520" width="50" height="30" as="geometry"/>
                </mxCell>
                <mxCell id="33" value="VPC" style="points=[[0,0],[0.25,0],[0.5,0],[0.75,0],[1,0],[1,0.25],[1,0.5],[1,0.75],[1,1],[0.75,1],[0.5,1],[0.25,1],[0,1],[0,0.75],[0,0.5],[0,0.25]];outlineConnect=0;gradientColor=none;html=1;whiteSpace=wrap;fontSize=12;fontStyle=0;container=1;pointerEvents=0;collapsible=0;recursiveResize=0;shape=mxgraph.aws4.group;grIcon=mxgraph.aws4.group_vpc;strokeColor=#248814;fillColor=none;verticalAlign=top;align=left;spacingLeft=30;fontColor=#AAB7B8;dashed=0;" vertex="1" parent="1">
                    <mxGeometry x="144.5" y="100" width="700" height="420" as="geometry"/>
                </mxCell>
                <mxCell id="34" value="Public Subnet" style="sketch=0;outlineConnect=0;gradientColor=none;html=1;whiteSpace=wrap;fontSize=12;fontStyle=0;shape=mxgraph.aws4.group;grIcon=mxgraph.aws4.group_subnet;strokeColor=#7F00FF;fillColor=none;verticalAlign=top;align=left;spacingLeft=30;fontColor=#E8E8E8;dashed=0;strokeWidth=2;" vertex="1" parent="33">
                    <mxGeometry x="20" y="170" width="200" height="220" as="geometry"/>
                </mxCell>
                <mxCell id="35" value="Public Subnet" style="sketch=0;outlineConnect=0;gradientColor=none;html=1;whiteSpace=wrap;fontSize=12;fontStyle=0;shape=mxgraph.aws4.group;grIcon=mxgraph.aws4.group_subnet;strokeColor=#7F00FF;fillColor=none;verticalAlign=top;align=left;spacingLeft=30;fontColor=#E8E8E8;dashed=0;strokeWidth=2;" vertex="1" parent="33">
                    <mxGeometry x="275.5" y="170" width="204.5" height="220" as="geometry"/>
                </mxCell>
                <mxCell id="37" value="Public Subnet" style="sketch=0;outlineConnect=0;gradientColor=none;html=1;whiteSpace=wrap;fontSize=12;fontStyle=0;shape=mxgraph.aws4.group;grIcon=mxgraph.aws4.group_subnet;strokeColor=#7F00FF;fillColor=none;verticalAlign=top;align=left;spacingLeft=30;fontColor=#E8E8E8;dashed=0;strokeWidth=2;" vertex="1" parent="33">
                    <mxGeometry x="515.5" y="170" width="184.5" height="220" as="geometry"/>
                </mxCell>
                <mxCell id="38" value="Bottle Rocket AMI - EC2" style="points=[[0,0],[0.25,0],[0.5,0],[0.75,0],[1,0],[1,0.25],[1,0.5],[1,0.75],[1,1],[0.75,1],[0.5,1],[0.25,1],[0,1],[0,0.75],[0,0.5],[0,0.25]];outlineConnect=0;gradientColor=none;html=1;whiteSpace=wrap;fontSize=12;fontStyle=0;container=1;pointerEvents=0;collapsible=0;recursiveResize=0;shape=mxgraph.aws4.group;grIcon=mxgraph.aws4.group_ec2_instance_contents;strokeColor=#D86613;fillColor=none;verticalAlign=top;align=left;spacingLeft=30;fontColor=#D86613;dashed=0;shadow=0;sketch=0;strokeWidth=2;fontFamily=Times New Roman;" vertex="1" parent="33">
                    <mxGeometry x="35.5" y="210" width="164.5" height="160" as="geometry"/>
                </mxCell>
                <mxCell id="39" value="Bottle Rocket AMI - EC2" style="points=[[0,0],[0.25,0],[0.5,0],[0.75,0],[1,0],[1,0.25],[1,0.5],[1,0.75],[1,1],[0.75,1],[0.5,1],[0.25,1],[0,1],[0,0.75],[0,0.5],[0,0.25]];outlineConnect=0;gradientColor=none;html=1;whiteSpace=wrap;fontSize=12;fontStyle=0;container=1;pointerEvents=0;collapsible=0;recursiveResize=0;shape=mxgraph.aws4.group;grIcon=mxgraph.aws4.group_ec2_instance_contents;strokeColor=#D86613;fillColor=none;verticalAlign=top;align=left;spacingLeft=30;fontColor=#D86613;dashed=0;shadow=0;sketch=0;strokeWidth=2;fontFamily=Times New Roman;" vertex="1" parent="33">
                    <mxGeometry x="285.5" y="210" width="174.5" height="160" as="geometry"/>
                </mxCell>
                <mxCell id="49" style="edgeStyle=none;html=1;exitX=1;exitY=0.5;exitDx=0;exitDy=0;exitPerimeter=0;entryX=0.5;entryY=0;entryDx=0;entryDy=0;strokeWidth=1;fontFamily=Times New Roman;fontSize=14;startArrow=classic;startFill=1;" edge="1" parent="33" source="13" target="39">
                    <mxGeometry relative="1" as="geometry"/>
                </mxCell>
                <mxCell id="50" style="edgeStyle=none;html=1;exitX=0;exitY=0.5;exitDx=0;exitDy=0;exitPerimeter=0;entryX=0.75;entryY=0;entryDx=0;entryDy=0;strokeWidth=1;fontFamily=Times New Roman;fontSize=14;startArrow=classic;startFill=1;" edge="1" parent="33" source="13" target="38">
                    <mxGeometry relative="1" as="geometry"/>
                </mxCell>
                <mxCell id="13" value="" style="outlineConnect=0;dashed=0;verticalLabelPosition=bottom;verticalAlign=top;align=center;html=1;shape=mxgraph.aws3.application_load_balancer;fillColor=#F58534;gradientColor=none;" vertex="1" parent="33">
                    <mxGeometry x="211" y="110" width="64.5" height="60" as="geometry"/>
                </mxCell>
                <mxCell id="43" value="" style="sketch=0;points=[[0,0,0],[0.25,0,0],[0.5,0,0],[0.75,0,0],[1,0,0],[0,1,0],[0.25,1,0],[0.5,1,0],[0.75,1,0],[1,1,0],[0,0.25,0],[0,0.5,0],[0,0.75,0],[1,0.25,0],[1,0.5,0],[1,0.75,0]];outlineConnect=0;fontColor=#232F3E;gradientColor=#945DF2;gradientDirection=north;fillColor=#5A30B5;strokeColor=#ffffff;dashed=0;verticalLabelPosition=bottom;verticalAlign=top;align=center;html=1;fontSize=12;fontStyle=0;aspect=fixed;shape=mxgraph.aws4.resourceIcon;resIcon=mxgraph.aws4.route_53;" vertex="1" parent="33">
                    <mxGeometry x="211" width="53.25" height="53.25" as="geometry"/>
                </mxCell>
                <mxCell id="45" value="" style="sketch=0;outlineConnect=0;fontColor=#232F3E;gradientColor=none;fillColor=#4D27AA;strokeColor=none;dashed=0;verticalLabelPosition=bottom;verticalAlign=top;align=center;html=1;fontSize=12;fontStyle=0;aspect=fixed;pointerEvents=1;shape=mxgraph.aws4.internet_gateway;shadow=0;strokeWidth=2;fontFamily=Times New Roman;" vertex="1" parent="33">
                    <mxGeometry x="325" width="50" height="50" as="geometry"/>
                </mxCell>
                <mxCell id="47" value="" style="endArrow=classic;startArrow=classic;html=1;strokeWidth=1;fontFamily=Times New Roman;fontSize=14;" edge="1" parent="33" target="45">
                    <mxGeometry width="50" height="50" relative="1" as="geometry">
                        <mxPoint x="265.5" y="25" as="sourcePoint"/>
                        <mxPoint x="355.5" y="50" as="targetPoint"/>
                    </mxGeometry>
                </mxCell>
                <mxCell id="48" style="edgeStyle=none;html=1;exitX=0.25;exitY=1;exitDx=0;exitDy=0;exitPerimeter=0;entryX=0.5;entryY=0;entryDx=0;entryDy=0;strokeWidth=1;fontFamily=Times New Roman;fontSize=14;entryPerimeter=0;" edge="1" parent="33" source="43" target="13">
                    <mxGeometry relative="1" as="geometry"/>
                </mxCell>
                <mxCell id="40" value="" style="points=[[0.35,0,0],[0.98,0.51,0],[1,0.71,0],[0.67,1,0],[0,0.795,0],[0,0.65,0]];verticalLabelPosition=bottom;sketch=0;html=1;verticalAlign=top;aspect=fixed;align=center;pointerEvents=1;shape=mxgraph.cisco19.user;fillColor=#005073;strokeColor=none;shadow=0;dashed=1;strokeWidth=2;fontFamily=Times New Roman;fontSize=14;" vertex="1" parent="1">
                    <mxGeometry x="330" y="-80" width="50" height="50" as="geometry"/>
                </mxCell>
                <mxCell id="41" value="" style="edgeStyle=segmentEdgeStyle;endArrow=classic;html=1;curved=0;rounded=0;endSize=8;startSize=8;fontFamily=Times New Roman;fontSize=14;entryX=0.5;entryY=0;entryDx=0;entryDy=0;strokeWidth=2;" edge="1" parent="1" target="33">
                    <mxGeometry width="50" height="50" relative="1" as="geometry">
                        <mxPoint x="380" y="-57" as="sourcePoint"/>
                        <mxPoint x="430" y="-107" as="targetPoint"/>
                    </mxGeometry>
                </mxCell>
                <mxCell id="42" value="&lt;b&gt;Access via https://ofek.kubegurus.com&lt;/b&gt;" style="text;html=1;align=center;verticalAlign=middle;resizable=0;points=[];autosize=1;strokeColor=none;fillColor=none;fontSize=14;fontFamily=Times New Roman;shadow=0;dashed=1;sketch=0;strokeWidth=2;" vertex="1" parent="1">
                    <mxGeometry x="363" y="-97" width="250" height="30" as="geometry"/>
                </mxCell>
                <mxCell id="105" value="Region" style="sketch=0;outlineConnect=0;gradientColor=none;html=1;whiteSpace=wrap;fontSize=12;fontStyle=0;shape=mxgraph.aws4.group;grIcon=mxgraph.aws4.group_region;strokeColor=#3399FF;fillColor=none;verticalAlign=top;align=left;spacingLeft=30;fontColor=#B6BABF;strokeWidth=2;" vertex="1" parent="1">
                    <mxGeometry x="1253.25" y="110" width="750" height="510" as="geometry"/>
                </mxCell>
                <mxCell id="106" value="" style="shape=ext;double=0;rounded=0;whiteSpace=wrap;html=1;shadow=0;sketch=0;strokeColor=#3399FF;strokeWidth=2;fillColor=none;rotation=-90;dashed=1;" vertex="1" parent="1">
                    <mxGeometry x="1137" y="232.5" width="505" height="265" as="geometry"/>
                </mxCell>
                <mxCell id="107" value="" style="shape=ext;double=0;rounded=0;whiteSpace=wrap;html=1;shadow=0;sketch=0;strokeColor=#3399FF;strokeWidth=2;fillColor=none;rotation=-90;dashed=1;" vertex="1" parent="1">
                    <mxGeometry x="1400.75" y="232.5" width="505" height="265" as="geometry"/>
                </mxCell>
                <mxCell id="108" value="" style="shape=ext;double=0;rounded=0;whiteSpace=wrap;html=1;shadow=0;sketch=0;strokeColor=#3399FF;strokeWidth=2;fillColor=none;rotation=-90;dashed=1;" vertex="1" parent="1">
                    <mxGeometry x="1641" y="254.75" width="505" height="220.5" as="geometry"/>
                </mxCell>
                <mxCell id="109" value="&lt;b&gt;&lt;font face=&quot;Times New Roman&quot; style=&quot;font-size: 14px;&quot;&gt;AZ-1&lt;/font&gt;&lt;/b&gt;" style="text;html=1;align=center;verticalAlign=middle;resizable=0;points=[];autosize=1;strokeColor=none;fillColor=none;" vertex="1" parent="1">
                    <mxGeometry x="1352.75" y="570" width="50" height="30" as="geometry"/>
                </mxCell>
                <mxCell id="110" value="&lt;b&gt;&lt;font face=&quot;Times New Roman&quot; style=&quot;font-size: 14px;&quot;&gt;AZ-2&lt;/font&gt;&lt;/b&gt;" style="text;html=1;align=center;verticalAlign=middle;resizable=0;points=[];autosize=1;strokeColor=none;fillColor=none;" vertex="1" parent="1">
                    <mxGeometry x="1628.25" y="570" width="50" height="30" as="geometry"/>
                </mxCell>
                <mxCell id="111" value="&lt;b&gt;&lt;font face=&quot;Times New Roman&quot; style=&quot;font-size: 14px;&quot;&gt;AZ-3&lt;/font&gt;&lt;/b&gt;" style="text;html=1;align=center;verticalAlign=middle;resizable=0;points=[];autosize=1;strokeColor=none;fillColor=none;" vertex="1" parent="1">
                    <mxGeometry x="1862.75" y="570" width="50" height="30" as="geometry"/>
                </mxCell>
                <mxCell id="112" value="VPC" style="points=[[0,0],[0.25,0],[0.5,0],[0.75,0],[1,0],[1,0.25],[1,0.5],[1,0.75],[1,1],[0.75,1],[0.5,1],[0.25,1],[0,1],[0,0.75],[0,0.5],[0,0.25]];outlineConnect=0;gradientColor=none;html=1;whiteSpace=wrap;fontSize=12;fontStyle=0;container=1;pointerEvents=0;collapsible=0;recursiveResize=0;shape=mxgraph.aws4.group;grIcon=mxgraph.aws4.group_vpc;strokeColor=#248814;fillColor=none;verticalAlign=top;align=left;spacingLeft=30;fontColor=#AAB7B8;dashed=0;" vertex="1" parent="1">
                    <mxGeometry x="1277.25" y="150" width="700" height="420" as="geometry"/>
                </mxCell>
                <mxCell id="113" value="Public Subnet" style="sketch=0;outlineConnect=0;gradientColor=none;html=1;whiteSpace=wrap;fontSize=12;fontStyle=0;shape=mxgraph.aws4.group;grIcon=mxgraph.aws4.group_subnet;strokeColor=#7F00FF;fillColor=none;verticalAlign=top;align=left;spacingLeft=30;fontColor=#E8E8E8;dashed=0;strokeWidth=2;" vertex="1" parent="112">
                    <mxGeometry x="20" y="100" width="200" height="290" as="geometry"/>
                </mxCell>
                <mxCell id="114" value="Public Subnet" style="sketch=0;outlineConnect=0;gradientColor=none;html=1;whiteSpace=wrap;fontSize=12;fontStyle=0;shape=mxgraph.aws4.group;grIcon=mxgraph.aws4.group_subnet;strokeColor=#7F00FF;fillColor=none;verticalAlign=top;align=left;spacingLeft=30;fontColor=#E8E8E8;dashed=0;strokeWidth=2;" vertex="1" parent="112">
                    <mxGeometry x="275.5" y="100" width="204.5" height="290" as="geometry"/>
                </mxCell>
                <mxCell id="115" value="Public Subnet" style="sketch=0;outlineConnect=0;gradientColor=none;html=1;whiteSpace=wrap;fontSize=12;fontStyle=0;shape=mxgraph.aws4.group;grIcon=mxgraph.aws4.group_subnet;strokeColor=#7F00FF;fillColor=none;verticalAlign=top;align=left;spacingLeft=30;fontColor=#E8E8E8;dashed=0;strokeWidth=2;" vertex="1" parent="112">
                    <mxGeometry x="515.5" y="100" width="184.5" height="290" as="geometry"/>
                </mxCell>
                <mxCell id="130" value="" style="sketch=0;outlineConnect=0;fontColor=#232F3E;gradientColor=none;fillColor=#4D27AA;strokeColor=none;dashed=0;verticalLabelPosition=bottom;verticalAlign=top;align=center;html=1;fontSize=12;fontStyle=0;aspect=fixed;pointerEvents=1;shape=mxgraph.aws4.internet_gateway;shadow=0;strokeWidth=2;fontFamily=Times New Roman;" vertex="1" parent="112">
                    <mxGeometry x="353.25" y="10" width="50" height="50" as="geometry"/>
                </mxCell>
                <mxCell id="131" value="" style="outlineConnect=0;dashed=0;verticalLabelPosition=bottom;verticalAlign=top;align=center;html=1;shape=mxgraph.aws3.application_load_balancer;fillColor=#F58534;gradientColor=none;" vertex="1" parent="112">
                    <mxGeometry x="338.75" y="140" width="64.5" height="60" as="geometry"/>
                </mxCell>
                <mxCell id="132" value="" style="rounded=1;whiteSpace=wrap;html=1;shadow=0;dashed=1;sketch=0;strokeColor=#3399FF;strokeWidth=2;fontFamily=Times New Roman;fontSize=8;fillColor=none;" vertex="1" parent="112">
                    <mxGeometry x="48.75" y="280" width="601.25" height="80" as="geometry"/>
                </mxCell>
                <mxCell id="133" value="" style="sketch=0;points=[[0,0,0],[0.25,0,0],[0.5,0,0],[0.75,0,0],[1,0,0],[0,1,0],[0.25,1,0],[0.5,1,0],[0.75,1,0],[1,1,0],[0,0.25,0],[0,0.5,0],[0,0.75,0],[1,0.25,0],[1,0.5,0],[1,0.75,0]];outlineConnect=0;fontColor=#232F3E;gradientColor=#F78E04;gradientDirection=north;fillColor=#D05C17;strokeColor=#ffffff;dashed=0;verticalLabelPosition=bottom;verticalAlign=top;align=center;html=1;fontSize=12;fontStyle=0;aspect=fixed;shape=mxgraph.aws4.resourceIcon;resIcon=mxgraph.aws4.eks;shadow=0;strokeWidth=2;fontFamily=Times New Roman;" vertex="1" parent="112">
                    <mxGeometry x="58.75" y="290" width="36.75" height="36.75" as="geometry"/>
                </mxCell>
                <mxCell id="138" value="" style="rounded=1;whiteSpace=wrap;html=1;shadow=0;dashed=1;sketch=0;strokeColor=#3399FF;strokeWidth=2;fontFamily=Times New Roman;fontSize=8;fillColor=none;" vertex="1" parent="1">
                    <mxGeometry x="1240" y="680" width="610" height="410" as="geometry"/>
                </mxCell>
                <mxCell id="140" value="" style="sketch=0;points=[[0,0,0],[0.25,0,0],[0.5,0,0],[0.75,0,0],[1,0,0],[0,1,0],[0.25,1,0],[0.5,1,0],[0.75,1,0],[1,1,0],[0,0.25,0],[0,0.5,0],[0,0.75,0],[1,0.25,0],[1,0.5,0],[1,0.75,0]];outlineConnect=0;fontColor=#232F3E;gradientColor=#F78E04;gradientDirection=north;fillColor=#D05C17;strokeColor=#ffffff;dashed=0;verticalLabelPosition=bottom;verticalAlign=top;align=center;html=1;fontSize=12;fontStyle=0;aspect=fixed;shape=mxgraph.aws4.resourceIcon;resIcon=mxgraph.aws4.eks;shadow=0;strokeWidth=2;fontFamily=Times New Roman;" vertex="1" parent="1">
                    <mxGeometry x="1270" y="690" width="50" height="50" as="geometry"/>
                </mxCell>
                <mxCell id="141" value="" style="rounded=1;whiteSpace=wrap;html=1;shadow=0;dashed=1;sketch=0;strokeColor=#3399FF;strokeWidth=2;fontFamily=Times New Roman;fontSize=8;fillColor=none;" vertex="1" parent="1">
                    <mxGeometry x="1270" y="750" width="276.12" height="330" as="geometry"/>
                </mxCell>
                <mxCell id="143" value="" style="rounded=1;whiteSpace=wrap;html=1;shadow=0;dashed=1;sketch=0;strokeColor=#3399FF;strokeWidth=2;fontFamily=Times New Roman;fontSize=8;fillColor=none;" vertex="1" parent="1">
                    <mxGeometry x="1577" y="750" width="232" height="90" as="geometry"/>
                </mxCell>
                <mxCell id="144" value="&lt;font style=&quot;font-size: 14px;&quot;&gt;&lt;b&gt;Argocd&lt;/b&gt;&lt;/font&gt;" style="text;html=1;align=center;verticalAlign=middle;resizable=0;points=[];autosize=1;strokeColor=none;fillColor=none;fontSize=8;fontFamily=Times New Roman;" vertex="1" parent="1">
                    <mxGeometry x="1650" y="720" width="70" height="30" as="geometry"/>
                </mxCell>
                <mxCell id="145" value="&lt;b&gt;Weather_App&lt;/b&gt;" style="text;html=1;align=center;verticalAlign=middle;resizable=0;points=[];autosize=1;strokeColor=none;fillColor=none;fontSize=14;fontFamily=Times New Roman;" vertex="1" parent="1">
                    <mxGeometry x="1350" y="720" width="110" height="30" as="geometry"/>
                </mxCell>
                <mxCell id="146" value="" style="rounded=1;whiteSpace=wrap;html=1;shadow=0;dashed=1;sketch=0;strokeColor=#3399FF;strokeWidth=2;fontFamily=Times New Roman;fontSize=8;fillColor=none;" vertex="1" parent="1">
                    <mxGeometry x="1568" y="890" width="250" height="80" as="geometry"/>
                </mxCell>
                <mxCell id="147" value="&lt;b&gt;ALB Controller&lt;/b&gt;" style="text;html=1;align=center;verticalAlign=middle;resizable=0;points=[];autosize=1;strokeColor=none;fillColor=none;fontSize=14;fontFamily=Times New Roman;" vertex="1" parent="1">
                    <mxGeometry x="1625" y="860" width="120" height="30" as="geometry"/>
                </mxCell>
                <mxCell id="148" value="" style="sketch=0;html=1;dashed=0;whitespace=wrap;fillColor=#2875E2;strokeColor=#ffffff;points=[[0.005,0.63,0],[0.1,0.2,0],[0.9,0.2,0],[0.5,0,0],[0.995,0.63,0],[0.72,0.99,0],[0.5,1,0],[0.28,0.99,0]];verticalLabelPosition=bottom;align=center;verticalAlign=top;shape=mxgraph.kubernetes.icon;prIcon=pod;shadow=0;strokeWidth=2;fontFamily=Times New Roman;fontSize=14;" vertex="1" parent="1">
                    <mxGeometry x="1378" y="970" width="50" height="48" as="geometry"/>
                </mxCell>
                <mxCell id="153" style="edgeStyle=none;html=1;exitX=0.5;exitY=1;exitDx=0;exitDy=0;exitPerimeter=0;entryX=0.5;entryY=0;entryDx=0;entryDy=0;entryPerimeter=0;strokeWidth=1;fontFamily=Times New Roman;fontSize=14;startArrow=none;startFill=0;" edge="1" parent="1" source="149" target="150">
                    <mxGeometry relative="1" as="geometry"/>
                </mxCell>
                <mxCell id="149" value="" style="sketch=0;html=1;dashed=0;whitespace=wrap;fillColor=#2875E2;strokeColor=#ffffff;points=[[0.005,0.63,0],[0.1,0.2,0],[0.9,0.2,0],[0.5,0,0],[0.995,0.63,0],[0.72,0.99,0],[0.5,1,0],[0.28,0.99,0]];verticalLabelPosition=bottom;align=center;verticalAlign=top;shape=mxgraph.kubernetes.icon;prIcon=ing;shadow=0;strokeWidth=2;fontFamily=Times New Roman;fontSize=14;" vertex="1" parent="1">
                    <mxGeometry x="1378" y="760" width="50" height="48" as="geometry"/>
                </mxCell>
                <mxCell id="154" style="edgeStyle=none;html=1;exitX=0.5;exitY=1;exitDx=0;exitDy=0;exitPerimeter=0;entryX=0.5;entryY=0;entryDx=0;entryDy=0;entryPerimeter=0;strokeWidth=1;fontFamily=Times New Roman;fontSize=14;startArrow=none;startFill=0;" edge="1" parent="1" source="150" target="148">
                    <mxGeometry relative="1" as="geometry"/>
                </mxCell>
                <mxCell id="150" value="" style="sketch=0;html=1;dashed=0;whitespace=wrap;fillColor=#2875E2;strokeColor=#ffffff;points=[[0.005,0.63,0],[0.1,0.2,0],[0.9,0.2,0],[0.5,0,0],[0.995,0.63,0],[0.72,0.99,0],[0.5,1,0],[0.28,0.99,0]];verticalLabelPosition=bottom;align=center;verticalAlign=top;shape=mxgraph.kubernetes.icon;prIcon=svc;shadow=0;strokeWidth=2;fontFamily=Times New Roman;fontSize=14;" vertex="1" parent="1">
                    <mxGeometry x="1378" y="860" width="50" height="48" as="geometry"/>
                </mxCell>
            </root>
        </mxGraphModel>
    </diagram>
</mxfile>